<svg viewBox="0 0 32 32" fill="none" xmlns="http://www.w3.org/2000/svg">
<path d="M31.2826 25.2894L26.3407 20.3469C25.3564 19.3665 23.7263 19.3963 22.7077 20.4153L20.2179 22.9045C20.0606 22.8178 19.8978 22.7273 19.7266 22.6312C18.1544 21.76 16.0025 20.566 13.7381 18.2999C11.4669 16.0291 10.2718 13.8739 9.39795 12.3006C9.30575 12.1339 9.2174 11.9732 9.13015 11.8206L10.8011 10.1521L11.6227 9.32959C12.6428 8.30913 12.671 6.67951 11.6889 5.69628L6.74705 0.753284C5.76501 -0.228568 4.1342 -0.198781 3.11401 0.821682L1.72121 2.22248L1.75928 2.26026C1.29225 2.85617 0.901993 3.54347 0.611575 4.28464C0.343864 4.99014 0.177188 5.66337 0.100975 6.33798C-0.55157 11.7477 1.92053 16.6918 8.62948 23.4009C17.9033 32.674 25.3768 31.9735 25.6992 31.9393C26.4014 31.8554 27.0743 31.6876 27.7582 31.422C28.493 31.135 29.1798 30.7453 29.7753 30.2793L29.8058 30.3063L31.2168 28.9246C32.2348 27.9043 32.2642 26.2742 31.2826 25.2894Z" fill="white"/>
</svg>
