<svg width="61" height="53" viewBox="0 0 61 53" fill="none" xmlns="http://www.w3.org/2000/svg">
<path d="M8.73647 23.2433C6.90153 21.1797 3.74114 20.9943 1.67754 22.8293C-0.386061 24.6642 -0.57142 27.8246 1.26353 29.8882L8.73647 23.2433ZM24.0593 48L20.3228 51.3225C21.3227 52.4469 22.7758 53.0613 24.279 52.9952C25.7823 52.929 27.1758 52.1894 28.0731 50.9815L24.0593 48ZM60.0138 7.98149C61.6604 5.76472 61.1983 2.63282 58.9815 0.986185C56.7647 -0.660447 53.6328 -0.19826 51.9862 2.01851L60.0138 7.98149ZM1.26353 29.8882C4.98508 34.0735 9.7499 39.4321 13.5843 43.7443C15.5015 45.9004 17.1862 47.795 18.3915 49.1505C18.9941 49.8282 19.477 50.3712 19.8091 50.7448C19.9752 50.9316 20.1036 51.076 20.1905 51.1737C20.2339 51.2225 20.2671 51.2599 20.2893 51.2847C20.3004 51.2973 20.3087 51.3066 20.3144 51.313C20.3179 51.3169 20.3185 51.3177 20.3207 51.3201C20.321 51.3205 20.3213 51.3208 20.3216 51.3211C20.3219 51.3214 20.3221 51.3217 20.3223 51.3219C20.3224 51.3221 20.3226 51.3222 20.3227 51.3223C20.3228 51.3224 20.3228 51.3225 24.0593 48C27.7958 44.6775 27.7957 44.6775 27.7956 44.6774C27.7955 44.6773 27.7954 44.6771 27.7952 44.6769C27.7937 44.6752 27.7955 44.6773 27.7936 44.6752C27.7921 44.6734 27.7903 44.6714 27.7873 44.668C27.7817 44.6618 27.7733 44.6522 27.7622 44.6398C27.74 44.6149 27.7069 44.5776 27.6635 44.5288C27.5766 44.431 27.4482 44.2866 27.2821 44.0999C26.9499 43.7263 26.4671 43.1833 25.8644 42.5056C24.6591 41.15 22.9745 39.2555 21.0573 37.0994C17.2228 32.7871 12.458 27.4286 8.73647 23.2433L1.26353 29.8882ZM28.0731 50.9815L60.0138 7.98149L51.9862 2.01851L20.0455 45.0185L28.0731 50.9815Z" fill="#6FCA15"/>
</svg>
